<?xml version="1.0" encoding="utf-8"?>
<!-- Generator: Adobe Illustrator 16.0.4, SVG Export Plug-In . SVG Version: 6.00 Build 0)  -->
<!DOCTYPE svg PUBLIC "-//W3C//DTD SVG 1.1//EN" "http://www.w3.org/Graphics/SVG/1.1/DTD/svg11.dtd">
<svg version="1.1" id="Layer_1" xmlns="http://www.w3.org/2000/svg" xmlns:xlink="http://www.w3.org/1999/xlink" x="0px" y="0px"
	 width="4619.076px" height="1111.855px" viewBox="10.92 0 4619.076 1111.855" enable-background="new 10.92 0 4619.076 1111.855"
	 xml:space="preserve">
<g>
	<g>
		<path fill="#880000" d="M126.681,773.748c1.729-7.781,4.607-19.171,8.646-34.167l104.474-381.635
			c2.594-9.808,4.472-17.739,5.627-23.798c1.155-6.052,1.736-11.247,1.736-15.577c0-12.977-4.33-20.907-12.977-23.791
			c-8.653-2.885-22.778-4.04-42.375-3.466v-23.345c43.827-4.323,73.468-7.566,88.917-9.728c15.449-2.162,47.286-7.708,95.517-16.645
			l-128.07,462.933c-6.343,23.365-10.234,38.22-11.672,44.569c-5.188,21.062-7.782,35.053-7.782,41.97
			c0,6.06,1.581,10.099,4.756,12.118c3.168,2.021,6.052,3.026,8.646,3.026c8.66,0,19.718-7.491,33.174-22.48
			c13.456-14.982,25.392-31.128,35.809-48.421l19.455,12.538c-25.98,39.773-47.042,67.442-63.201,83.006
			c-26.845,25.939-55.412,38.909-85.715,38.909c-16.455,0-30.661-5.553-42.631-16.65c-11.97-11.099-17.955-25.73-17.955-43.901
			C121.061,801.721,122.932,789.899,126.681,773.748z"/>
		<path fill="#880000" d="M442.968,544.994c53.027-62.188,111.25-93.288,174.659-93.288c27.378,0,50.076,6.762,68.091,20.285
			c18.009,13.524,27.021,32.661,27.021,57.398c0,37.403-21.042,72.793-63.12,106.17c-42.084,33.377-96.699,54.669-163.852,63.869
			c-1.729,8.938-3.026,17.293-3.891,25.075c-0.865,7.781-1.297,14.125-1.297,19.022c0,18.157,2.594,32.424,7.782,42.8
			c9.221,19.312,26.946,28.966,53.176,28.966c21.326,0,42.51-10.95,63.552-32.856c11.241-11.524,23.346-27.521,36.315-47.988
			l25.939,15.131c-22.197,37.181-43.09,64.417-62.687,81.71c-31.127,27.669-67.591,41.503-109.378,41.503
			c-31.127,0-60.458-11.301-87.978-33.903c-27.527-22.603-41.287-57.081-41.287-103.434
			C366.014,668.659,391.663,605.168,442.968,544.994z M626.706,491.244c-3.75-7.046-10.524-10.572-20.319-10.572
			c-20.752,0-41.146,16.678-61.174,50.035c-20.036,33.356-37.828,80.088-53.392,140.188c51.014-11.497,87.181-33.641,108.514-66.423
			c21.326-32.782,31.992-61.971,31.992-87.566C632.326,506.841,630.448,498.29,626.706,491.244z"/>
		<path fill="#880000" d="M728.648,860.254l77.4-283.302c4.654-16.59,7.708-28.25,9.167-34.978
			c1.453-6.728,2.182-13.233,2.182-19.529c0-9.444-2.972-15.307-8.917-17.597c-5.944-2.29-19.009-4.006-39.179-5.154v-23.345
			c37.301-2.304,69.057-5.33,95.253-9.079c16.881-2.303,44.678-7.201,83.392-14.699L894.58,616.429l3.026,2.162
			c38.612-58.513,67.72-97.712,87.323-117.599c31.985-32.276,65.7-48.42,101.151-48.42c16.421,0,30.107,5.127,41.064,15.381
			c10.95,10.254,16.428,24.332,16.428,42.233c0,13.578-2.594,29.607-7.782,48.089c-2.851,10.281-6.701,23.123-11.551,38.538
			c36.883-46.354,66.733-78.886,89.566-97.598c37.937-31.094,77.271-46.644,118.018-46.644c27.398,0,47.664,6.512,60.809,19.522
			c13.139,13.017,19.711,31.445,19.711,55.277c0,13.49-2.743,31.526-8.214,54.108c-0.581,3.134-3.607,14.429-9.079,33.87
			l-46.975,140.472c-3.458,7.836-6.701,15.962-9.727,24.379c-3.026,8.417-4.54,14.348-4.54,17.8c0,3.229,1.655,5.769,4.972,7.613
			c3.31,1.844,6.411,2.763,9.295,2.763c8.37,0,20.062-9.653,35.072-28.966c8.079-10.376,16.888-23.346,26.413-38.909l19.455,12.537
			c-21.92,35.451-40.523,60.958-55.804,76.521c-26.534,26.805-54.507,40.206-83.918,40.206c-14.996,0-28.979-4.025-41.949-12.071
			c-12.97-8.045-19.455-21.325-19.455-39.834c0-15.294,3.891-36.755,11.673-64.383c4.897-16.901,11.382-36.35,19.455-58.351
			l36.451-135.284c0.574-2.702,1.081-5.499,1.513-8.396c0.432-2.891,0.648-5.695,0.648-8.396c0-7.336-1.804-13.51-5.404-18.536
			c-4.323-5.012-10.625-7.525-18.907-7.525c-23.048,0-49.062,15.422-78.055,46.259c-28.993,30.844-53.21,62.688-72.651,95.544
			c-7.201,11.821-14.314,26.23-21.339,43.232c-7.025,17.01-24.737,69.753-53.135,158.231H941.785l78.467-290.11
			c2.304-6.762,4.175-12.916,5.62-18.462c1.439-5.546,2.162-10.889,2.162-16.03c0-8.113-1.702-13.253-5.1-15.415
			c-3.397-2.162-7.106-3.25-11.132-3.25c-12.882,0-29.918,13.2-51.109,39.592c-21.197,26.398-41.314,60.654-60.363,102.765
			c-10.2,22.502-21.333,53.946-33.404,94.328c-8.052,24.454-18.698,59.985-31.925,106.582H728.648z"/>
		<path fill="#880000" d="M1736.312,472.89c41.503,23.636,62.255,63.842,62.255,120.619c0,62.836-23.927,123.794-71.766,182.874
			c-52.169,64.274-111.831,96.408-178.983,96.408c-34.302,0-66.794-10.666-97.489-31.992
			c-30.695-21.325-46.042-57.351-46.042-108.081c0-63.119,23.778-124.219,71.333-183.306
			c52.163-64.559,112.256-96.841,180.28-96.841C1685.872,452.571,1712.676,459.346,1736.312,472.89z M1515.394,820.479
			c7.201,16.429,20.751,24.643,40.639,24.643c36.89,0,70.037-42.367,99.435-127.104c24.494-71.185,36.748-132.724,36.748-184.603
			c0-13.834-1.729-24.643-5.188-32.424c-6.633-14.409-19.022-21.617-37.18-21.617c-42.368,0-77.967,44.962-106.784,134.886
			c-22.197,68.308-33.289,125.091-33.289,170.336C1509.773,799.877,1511.645,811.833,1515.394,820.479z"/>
		<path fill="#880000" d="M1840.725,785.462c1.871-9.795,5.688-25.075,11.457-45.827l65.801-240.373h-45.056V469
			c29.344-11.815,54.047-24.785,74.097-38.909c35.444-24.785,65.078-56.635,88.91-95.544h31.992l-35.133,128.4h63.552v36.315
			h-73.948l-57.121,205.355c-5.134,18.157-9.119,33.289-11.97,45.394c-4.904,20.752-7.35,35.019-7.35,42.801
			c0,5.478,1.655,9.078,4.972,10.808c3.31,1.729,6.12,2.594,8.43,2.594c8.363,0,19.104-7.2,32.222-21.616
			c13.119-14.408,25.163-30.837,36.12-49.285l19.455,12.538c-26.291,39.773-47.374,67.442-63.254,83.006
			c-26.865,25.939-55.317,38.909-85.357,38.909c-17.333,0-31.769-5.694-43.313-17.076c-11.544-11.383-17.313-25.865-17.313-43.449
			C1837.915,803.187,1838.847,795.264,1840.725,785.462z"/>
		<path fill="#880000" d="M2211.005,839.07c-18.739,70.61-43.381,122.563-73.928,155.853
			c-30.553,33.289-67.875,49.934-111.972,49.934c-25.94,0-48.056-6.343-66.362-19.021c-18.299-12.687-27.453-28.534-27.453-47.557
			c0-17.009,4.323-29.472,12.97-37.396c8.646-7.931,19.313-11.89,31.992-11.89c10.957,0,21.042,3.959,30.263,11.89
			c9.228,7.924,13.834,18.657,13.834,32.208c0,6.053-0.932,11.166-2.81,15.348c-1.871,4.175-5.688,10.302-11.457,18.374
			c1.729,3.458,4.397,6.053,7.998,7.781c3.607,1.729,8.146,2.595,13.618,2.595c13.551,0,26.372-12.828,38.477-38.478
			c6.917-14.989,15.131-40.787,24.643-77.386l86.397-315.598c3.458-12.97,6.194-24.494,8.214-34.586
			c2.013-10.085,3.026-18.009,3.026-23.778c0-12.105-3.458-19.597-10.369-22.481c-6.917-2.877-21.88-4.607-44.901-5.188v-23.345
			c35.322-2.594,62.519-5.188,81.581-7.782c19.063-2.594,51.582-7.923,97.557-15.996l-65.382,252.046L2211.005,839.07z
			 M2329.895,272.292c11.524,11.531,17.293,25.507,17.293,41.936s-5.836,30.479-17.509,42.152
			c-11.673,11.672-25.724,17.509-42.152,17.509s-30.412-5.836-41.936-17.509c-11.531-11.673-17.293-25.724-17.293-42.152
			s5.762-30.405,17.293-41.936c11.524-11.524,25.507-17.293,41.936-17.293C2304.239,254.999,2318.364,260.767,2329.895,272.292z"/>
		<path fill="#880000" d="M2353.458,768.169c2.594-12.97,5.472-24.927,8.646-35.884l46.036-168.174
			c2.33-7.492,4.005-13.977,5.025-19.455c1.02-5.472,1.534-10.95,1.534-16.428c0-11.241-3.688-18.658-11.065-22.265
			c-7.376-3.601-20.137-5.688-38.294-6.269v-23.345c60.6-5.472,106.062-10.808,136.385-15.996
			c30.316-5.188,46.792-7.782,49.42-7.782l-40.172,135.317l-42.659,136.183c-2.02,6.343-4.323,14.699-6.917,25.075
			c-4.039,15.563-6.053,27.095-6.053,34.586c0,7.208,1.797,12.537,5.404,15.996c3.601,3.458,8.646,5.188,15.132,5.188
			c14.01,0,32.438-13.76,55.283-41.287c22.839-27.52,44.205-64.2,64.105-110.026c12.889-29.682,24.379-59.944,34.472-90.788
			c6.674-20.461,16.685-53.75,30.033-99.868h104.629l-33.762,122.781c-1.357,4.613-7.322,26.446-17.895,65.497
			c-10.578,39.058-16.948,62.471-19.116,70.253c-4.323,15.28-8.072,29.473-11.241,42.584c-3.175,13.118-4.755,22.123-4.755,27.021
			c0,5.479,1.364,9.728,4.106,12.753c2.736,3.026,6.12,4.54,10.16,4.54c9.228,0,21.637-10.086,37.214-30.263
			c8.943-11.24,17.016-23.056,24.23-35.451l18.59,11.241c-17.091,31.991-38.524,59.303-64.302,81.925
			c-25.777,22.63-52.365,33.938-79.764,33.938c-24.156,0-40.949-6.633-50.373-19.887c-6.384-8.93-9.572-20.751-9.572-35.45
			c0-14.118,1.148-26.156,3.459-36.1c2.304-9.943,7.646-28.026,16.023-54.257l-2.121-0.864
			c-35.641,51.879-62.235,86.465-79.771,103.758c-28.852,28.824-58.412,43.232-88.675,43.232c-14.712,0-27.729-3.749-39.038-11.24
			c-18.826-11.814-28.236-31.844-28.236-60.094C2349.567,791.372,2350.864,781.139,2353.458,768.169z"/>
		<path fill="#880000" d="M2822.721,725.368l23.346,1.729c4.323,43.523,15.415,74.076,33.289,91.653
			c17.867,17.583,35.451,26.371,52.744,26.371c14.982,0,26.946-4.748,35.883-14.246c8.931-9.498,13.402-20.725,13.402-33.681
			c0-11.795-3.966-24.751-11.89-38.855c-7.93-14.104-17.225-27.776-27.885-41.017l-32.856-41.023
			c-14.415-15.551-26.662-33.688-36.748-54.419c-10.092-20.731-15.131-41.463-15.131-62.194c0-29.371,11.071-54.709,33.229-76.015
			c22.149-21.306,52.21-31.965,90.187-31.965c15.53,0,31.925,3.316,49.19,9.943c17.26,6.633,28.621,9.943,34.093,9.943
			c6.904,0,12.078-1.581,15.53-4.755c3.452-3.168,6.62-7.782,9.498-13.834h25.507l-19.887,135.318l-23.346-2.162
			c-5.513-37.463-15.746-64.416-30.688-80.844c-14.949-16.429-30.695-24.643-47.231-24.643c-16.55,0-28.669,4.897-36.355,14.686
			c-7.688,9.788-11.531,20.583-11.531,32.384c0,10.369,2.816,20.522,8.457,30.452s16.563,25.115,32.763,45.557l43.388,55.276
			c9.538,12.092,18.069,26.703,25.595,43.834c7.519,17.131,11.281,34.188,11.281,51.17c0,35.707-12.855,64.423-38.552,86.161
			c-25.696,21.731-57.026,32.6-93.977,32.6c-15.598,0-32.275-3.316-50.028-9.943c-17.759-6.627-28.513-9.943-32.262-9.943
			c-7.222,0-12.706,2.006-16.462,6.012s-6.782,8.634-9.093,13.875h-23.346L2822.721,725.368z"/>
		<path fill="#880000" d="M3140.476,785.462c1.871-9.795,5.688-25.075,11.456-45.827l65.802-240.373h-45.057V469
			c29.344-11.815,54.048-24.785,74.097-38.909c35.443-24.785,65.078-56.635,88.91-95.544h31.992l-35.133,128.4h63.552v36.315
			h-73.948l-57.121,205.355c-5.134,18.157-9.119,33.289-11.97,45.394c-4.904,20.752-7.35,35.019-7.35,42.801
			c0,5.478,1.655,9.078,4.972,10.808c3.31,1.729,6.12,2.594,8.431,2.594c8.362,0,19.103-7.2,32.222-21.616
			c13.118-14.408,25.162-30.837,36.119-49.285l19.455,12.538c-26.291,39.773-47.374,67.442-63.255,83.006
			c-26.865,25.939-55.317,38.909-85.357,38.909c-17.334,0-31.77-5.694-43.313-17.076c-11.545-11.383-17.313-25.865-17.313-43.449
			C3137.665,803.187,3138.598,795.264,3140.476,785.462z"/>
		<path fill="#880000" d="M3459.08,544.994c53.027-62.188,111.25-93.288,174.66-93.288c27.378,0,50.075,6.762,68.091,20.285
			c18.009,13.524,27.021,32.661,27.021,57.398c0,37.403-21.042,72.793-63.12,106.17c-42.084,33.377-96.698,54.669-163.851,63.869
			c-1.729,8.938-3.026,17.293-3.892,25.075c-0.864,7.781-1.297,14.125-1.297,19.022c0,18.157,2.594,32.424,7.782,42.8
			c9.221,19.312,26.946,28.966,53.176,28.966c21.326,0,42.51-10.95,63.552-32.856c11.24-11.524,23.346-27.521,36.315-47.988
			l25.939,15.131c-22.197,37.181-43.091,64.417-62.687,81.71c-31.128,27.669-67.592,41.503-109.379,41.503
			c-31.127,0-60.458-11.301-87.979-33.903c-27.526-22.603-41.287-57.081-41.287-103.434
			C3382.126,668.659,3407.775,605.168,3459.08,544.994z M3642.818,491.244c-3.749-7.046-10.524-10.572-20.319-10.572
			c-20.751,0-41.145,16.678-61.174,50.035c-20.035,33.356-37.828,80.088-53.392,140.188c51.014-11.497,87.181-33.641,108.513-66.423
			c21.326-32.782,31.992-61.971,31.992-87.566C3648.438,506.841,3646.561,498.29,3642.818,491.244z"/>
	</g>
	<g>
		<g>
			<path fill="#880000" d="M4433.062,417.468c1.623,0.293,3.854,0.225,5.14-0.676c3.045-2.143,5.729-4.849,8.977-7.713
				C4376.28,370.7,4301.98,349.12,4222.92,344c84.247-10.711,159.631,15.965,232.015,55.721
				c29.541-32.224,56.285-66.274,78.249-104.248c-28.165-19.844-59.284-29.698-92.771-33.216
				c39.191-10.621,77.121-10.058,112.614,12.808c0,0,0.157-0.067,0.181-0.18c23.586-43.747,39.236-89.952,44.311-139.607
				c3.27-31.976,2.254-63.636-4.871-95.025c-0.789-3.427-1.916-6.833-2.908-10.35c-1.602,0.586-2.504,0.902-3.383,1.24
				c-33.262,12.944-65.418,28.255-96.74,45.348c-66.004,35.989-126.685,79.556-184.141,127.79
				c-36.893,30.938-72.543,63.32-105.715,98.205c-32.269,33.938-63.411,68.958-94.98,103.526
				c-4.035,4.442-7.869,9.065-11.816,13.621c3.451-5.795,7.667-10.915,11.816-16.079c42.643-53.083,87.111-104.541,134.016-153.88
				c47.916-50.399,97.844-98.656,152.346-141.929c25.549-20.295,52.338-39.011,78.722-58.224
				c7.712-5.615,15.987-10.418,24.038-15.627c-1.331-0.271-2.344,0.09-3.27,0.542c-41.809,20.769-80.459,46.498-117.619,74.527
				c-54.865,41.312-105.377,87.516-153.139,136.81c-61.064,63.049-116.829,130.587-168.492,201.506
				c-54.931,75.34-105.826,153.362-151.445,234.767l0.091-0.111c-1.083,1.556-2.3,3.043-3.225,4.69
				c-4.532,8.14-8.975,16.326-13.485,24.443c-7.554,13.62-15.874,26.88-22.64,40.883c-26.993,56.059-53.488,112.344-80.165,168.538
				c-0.496,1.016-0.768,2.098-1.398,3.765c8.096-4.081,15.537-7.688,22.865-11.567c1.354-0.722,2.729-2.187,3.271-3.63
				c16.033-43.477,38.38-83.503,65.508-120.98c10.937-15.131,23.43-28.209,41.356-34.817c7.757-2.842,15.694-5.187,23.677-7.329
				c3.608-0.97,7.713-1.805,11.185-1.015c9.246,2.12,18.401,4.871,27.331,8.006c4.735,1.668,8.975,4.735,14.455,7.711
				c-6.608-11.048-16.62-15.941-27.398-21.648c27.94-5.748,54.751-10.755,83.66-6.515c-13.913-17.432-32.899-13.305-50.738-14.568
				c3.428-2.278,6.382-4.082,9.179-6.179c2.932-2.164,5.84-4.441,8.456-6.967c24.354-23.611,53.759-32.248,87.065-29.834
				c2.526,0.158,5.66-0.834,7.713-2.346c21.603-16.077,43.002-32.381,64.469-48.639c6.066-4.558,12.043-9.225,18.942-14.501
				c-49.812-21.176-99.963-15.694-150.249-8.05c0.111-0.316,0.111-0.7,0.314-0.835c24.716-17.746,52.203-28.48,82.488-31.366
				c33.621-3.225,66.003,2.412,97.1,15.468c2.502,1.039,3.9,0.769,5.863-0.812c15.244-12.334,30.464-24.646,45.934-36.665
				c3.292-2.594,3.652-4.668,2.119-8.321c-7.486-17.656-21.939-26.474-39.462-30.848c-9.673-2.413-19.754-3.248-29.675-4.804
				c15.266-4.69,30.871-8.275,46.927-9.357c25.006-1.714,49.339,0.722,71.866,13.012c1.307,0.721,4.059,0.247,5.366-0.722
				c19.01-13.643,37.907-27.443,56.757-41.289c4.624-3.383,42.373-31.344,41.719-38.899L4433.062,417.468z"/>
		</g>
	</g>
	<polygon fill="#880000" points="2464.703,998.625 2504.571,1045.146 3746.732,938.866 	"/>
</g>
</svg>
